<?xml version="1.0" encoding="utf-8"?>
<svg xmlns="http://www.w3.org/2000/svg" viewBox="0 0 48.094 6.825" class="logo-svg">
<style>
  .logo-svg path {
    vector-effect: non-scaling-stroke;
    fill-opacity: 0;
    fill-rule: evenodd;
    stroke: #e6e6e6;
    animation-name: line,stroke,fill;
    animation-duration: 4s,1s,1s;
    animation-delay: 0s,3.5s,3.5s;
    animation-timing-function: cubic-bezier(0.4, 0, 0.2, 1);
    animation-fill-mode: forwards;
    animation-iteration: 1
  }

  .logo-svg .name {
    stroke-dasharray: 1000;
    stroke-dashoffset: 1000;
    fill: #e6e6e6;
  }

  .logo-svg .flag {
    stroke-dasharray: 550;
    stroke-dashoffset: 550;
    fill: #ff5757;
    animation-delay: 1s,3.5s,3.5s;
    animation-duration: 3.5s,1s,1s;
  }

  .logo-svg .letter {
    fill-opacity: 0;
    -webkit-animation-duration: 1s;
    animation-duration: 1s;
    animation-timing-function: ease-in;
    animation-fill-mode: forwards;
    animation-iteration: 1;
    animation-name: fill;
    fill: white;
    stroke: none
  }

  .logo-svg .letter:nth-child(4) {
    -webkit-animation-delay: 4.4s;
    animation-delay: 4.4s
  }

  .logo-svg .letter:nth-child(5) {
    -webkit-animation-delay: 4.5s;
    animation-delay: 4.5s
  }

  .logo-svg .letter:nth-child(6) {
    -webkit-animation-delay: 4.6s;
    animation-delay: 4.6s
  }

  .logo-svg .letter:nth-child(7) {
    -webkit-animation-delay: 4.7s;
    animation-delay: 4.7s
  }

  .logo-svg .letter:nth-child(8) {
    -webkit-animation-delay: 4.8s;
    animation-delay: 4.8s
  }

  .logo-svg .letter:nth-child(9) {
    -webkit-animation-delay: 4.9s;
    animation-delay: 4.9s
  }

  .logo-svg .letter:nth-child(10) {
    -webkit-animation-delay: 5s;
    animation-delay: 5s
  }

  .logo-svg .letter:nth-child(11) {
    -webkit-animation-delay: 5.1s;
    animation-delay: 5.1s
  }

  .logo-svg .letter:nth-child(12) {
    -webkit-animation-delay: 5.2s;
    animation-delay: 5.2s
  }

  .logo-svg .letter:nth-child(13) {
    -webkit-animation-delay: 5.3s;
    animation-delay: 5.3s
  }

  .logo-svg .letter:nth-child(14) {
    -webkit-animation-delay: 5.4s;
    animation-delay: 5.4s
  }

  .logo-svg .letter:nth-child(15) {
    -webkit-animation-delay: 5.5s;
    animation-delay: 5.5s
  }

  .logo-svg .letter:nth-child(16) {
    -webkit-animation-delay: 5.6s;
    animation-delay: 5.6s
  }

  .logo-svg .letter:nth-child(17) {
    -webkit-animation-delay: 5.7s;
    animation-delay: 5.7s
  }

  .logo-svg .letter:nth-child(18) {
    -webkit-animation-delay: 5.8s;
    animation-delay: 5.8s
  }

  .logo-svg .letter:nth-child(19) {
    -webkit-animation-delay: 5.9s;
    animation-delay: 5.9s
  }

  .logo-svg .letter:nth-child(20) {
    -webkit-animation-delay: 6s;
    animation-delay: 6s
  }

  .logo-svg .letter:nth-child(21) {
    -webkit-animation-delay: 6.1s;
    animation-delay: 6.1s
  }

  .logo-svg .letter:nth-child(22) {
    -webkit-animation-delay: 6.2s;
    animation-delay: 6.2s
  }

  .logo-svg .letter:nth-child(23) {
    -webkit-animation-delay: 6.3s;
    animation-delay: 6.3s
  }

  .logo-svg .letter:nth-child(24) {
    -webkit-animation-delay: 6.4s;
    animation-delay: 6.4s
  }

  .logo-svg .letter:nth-child(25) {
    -webkit-animation-delay: 6.5s;
    animation-delay: 6.5s
  }

  .logo-svg .letter:nth-child(26) {
    -webkit-animation-delay: 6.6s;
    animation-delay: 6.6s
  }

  .logo-svg .letter:nth-child(27) {
    -webkit-animation-delay: 6.7s;
    animation-delay: 6.7s
  }

  .logo-svg .letter:nth-child(28) {
    -webkit-animation-delay: 6.8s;
    animation-delay: 6.8s
  }

  .logo-svg:hover .name {
    fill: white;
  }

  @-webkit-keyframes line {
    to {
      stroke-dashoffset: 0
    }
  }

  @keyframes line {
    to {
      stroke-dashoffset: 0
    }
  }

  @-webkit-keyframes stroke {
    to {
      stroke-opacity: 0
    }
  }

  @keyframes stroke {
    to {
      stroke-opacity: 0
    }
  }

  @-webkit-keyframes fill {
    0% {
      fill-opacity: 0
    }

    to {
      fill-opacity: 1
    }
  }

  @keyframes fill {
    0% {
      fill-opacity: 0
    }

    to {
      fill-opacity: 1
    }
  }
</style>
  <path d="M 0 3.409 C 0 2.892 0.085 2.426 0.256 2.012 C 0.432 1.592 0.673 1.236 0.977 0.944 C 1.288 0.651 1.653 0.426 2.073 0.268 C 2.5 0.11 2.962 0.03 3.462 0.03 C 3.967 0.03 4.433 0.11 4.859 0.268 C 5.285 0.426 5.653 0.651 5.964 0.944 C 6.274 1.236 6.515 1.592 6.685 2.012 C 6.862 2.426 6.95 2.892 6.95 3.409 C 6.95 3.915 6.862 4.377 6.685 4.797 C 6.515 5.212 6.274 5.571 5.964 5.875 C 5.653 6.174 5.285 6.408 4.859 6.579 C 4.433 6.743 3.967 6.825 3.462 6.825 C 2.962 6.825 2.5 6.743 2.073 6.579 C 1.653 6.408 1.288 6.174 0.977 5.875 C 0.673 5.571 0.432 5.212 0.256 4.797 C 0.085 4.377 0 3.915 0 3.409 Z M 1.251 3.409 C 1.251 3.756 1.303 4.076 1.407 4.368 C 1.516 4.654 1.668 4.904 1.863 5.117 C 2.064 5.33 2.299 5.498 2.566 5.619 C 2.841 5.735 3.142 5.793 3.471 5.793 C 3.799 5.793 4.101 5.735 4.375 5.619 C 4.649 5.498 4.883 5.33 5.078 5.117 C 5.279 4.904 5.431 4.654 5.535 4.368 C 5.644 4.076 5.699 3.756 5.699 3.409 C 5.699 3.074 5.644 2.764 5.535 2.478 C 5.431 2.192 5.282 1.942 5.087 1.729 C 4.892 1.516 4.658 1.349 4.384 1.227 C 4.11 1.105 3.805 1.044 3.471 1.044 C 3.136 1.044 2.831 1.105 2.557 1.227 C 2.289 1.349 2.058 1.516 1.863 1.729 C 1.668 1.942 1.516 2.192 1.407 2.478 C 1.303 2.764 1.251 3.074 1.251 3.409 Z M 17.278 1.546 C 17.156 1.388 16.983 1.257 16.758 1.154 C 16.539 1.044 16.316 0.989 16.091 0.989 C 15.957 0.989 15.823 1.008 15.689 1.044 C 15.555 1.074 15.433 1.126 15.324 1.199 C 15.214 1.266 15.123 1.358 15.05 1.473 C 14.983 1.583 14.949 1.717 14.949 1.875 C 14.949 2.021 14.98 2.146 15.04 2.249 C 15.102 2.353 15.184 2.441 15.287 2.514 C 15.397 2.587 15.528 2.651 15.68 2.706 C 15.832 2.761 16 2.816 16.182 2.87 C 16.389 2.937 16.602 3.014 16.822 3.099 C 17.047 3.184 17.251 3.297 17.434 3.437 C 17.622 3.577 17.774 3.753 17.89 3.967 C 18.012 4.18 18.073 4.444 18.073 4.761 C 18.073 5.108 18.009 5.412 17.881 5.674 C 17.753 5.93 17.583 6.143 17.369 6.313 C 17.156 6.484 16.907 6.612 16.621 6.697 C 16.335 6.782 16.033 6.825 15.717 6.825 C 15.296 6.825 14.885 6.749 14.484 6.597 C 14.082 6.439 13.753 6.207 13.497 5.903 L 14.319 5.136 C 14.477 5.355 14.687 5.528 14.949 5.656 C 15.217 5.784 15.479 5.848 15.735 5.848 C 15.869 5.848 16.006 5.832 16.146 5.802 C 16.286 5.766 16.411 5.708 16.52 5.628 C 16.636 5.549 16.727 5.452 16.794 5.336 C 16.867 5.214 16.904 5.065 16.904 4.889 C 16.904 4.718 16.864 4.578 16.785 4.469 C 16.706 4.353 16.599 4.256 16.466 4.176 C 16.331 4.091 16.173 4.018 15.991 3.957 C 15.808 3.897 15.616 3.832 15.415 3.765 C 15.22 3.705 15.026 3.632 14.83 3.546 C 14.636 3.461 14.459 3.348 14.301 3.209 C 14.149 3.068 14.024 2.898 13.927 2.697 C 13.829 2.49 13.78 2.234 13.78 1.93 C 13.78 1.601 13.847 1.318 13.981 1.081 C 14.121 0.843 14.301 0.648 14.52 0.496 C 14.745 0.338 14.998 0.222 15.278 0.149 C 15.564 0.07 15.854 0.03 16.146 0.03 C 16.475 0.03 16.806 0.088 17.141 0.204 C 17.482 0.319 17.778 0.493 18.027 0.724 Z M 8.412 0.195 L 12.586 0.195 L 12.585 1.197 L 9.563 1.199 L 9.563 2.971 L 12.585 2.969 L 12.585 3.939 L 9.563 3.939 L 9.563 6.661 L 8.412 6.661 Z" class="name"/>
  <path d="M 19.121 0 L 21.15 0 L 21.15 2.415 Z" class="flag"/>
  <path id="path432" d="M 23.135 0.35 L 23.529 0.35 L 23.92 1.835 L 23.925 1.835 L 24.371 0.35 L 24.741 0.35 L 25.178 1.835 L 25.183 1.835 L 25.584 0.35 L 25.966 0.35 L 25.376 2.372 L 25.027 2.372 L 24.552 0.856 L 24.547 0.856 L 24.073 2.372 L 23.725 2.372 Z" class="letter"/>
  <path id="path434" d="M 27.055 1.549 C 27.055 1.505 27.048 1.463 27.035 1.424 C 27.023 1.384 27.003 1.349 26.977 1.318 C 26.951 1.287 26.915 1.264 26.873 1.246 C 26.835 1.227 26.786 1.218 26.731 1.218 C 26.629 1.218 26.541 1.25 26.47 1.313 C 26.398 1.373 26.36 1.452 26.352 1.55 Z M 27.397 1.704 C 27.397 1.719 27.397 1.734 27.397 1.75 C 27.397 1.765 27.396 1.779 27.394 1.795 L 26.352 1.795 C 26.356 1.844 26.368 1.889 26.388 1.931 C 26.411 1.972 26.441 2.008 26.477 2.037 C 26.514 2.067 26.555 2.089 26.6 2.105 C 26.646 2.124 26.693 2.131 26.744 2.131 C 26.828 2.131 26.901 2.116 26.96 2.086 C 27.019 2.053 27.067 2.01 27.106 1.955 L 27.334 2.136 C 27.199 2.32 27.003 2.412 26.746 2.412 C 26.639 2.412 26.541 2.396 26.451 2.363 C 26.362 2.329 26.284 2.281 26.217 2.22 C 26.152 2.16 26.101 2.086 26.063 1.998 C 26.026 1.908 26.009 1.808 26.009 1.694 C 26.009 1.585 26.026 1.484 26.063 1.395 C 26.101 1.303 26.152 1.226 26.217 1.164 C 26.282 1.099 26.358 1.05 26.446 1.015 C 26.535 0.979 26.631 0.961 26.735 0.961 C 26.829 0.961 26.917 0.977 26.997 1.009 C 27.079 1.04 27.149 1.087 27.208 1.15 C 27.268 1.21 27.314 1.287 27.346 1.382 C 27.38 1.472 27.397 1.579 27.397 1.704 Z" class="letter"/>
  <path id="path436" d="M 28.791 0.213 L 28.791 1.174 L 28.799 1.174 C 28.817 1.152 28.838 1.129 28.865 1.104 C 28.891 1.079 28.923 1.056 28.96 1.036 C 28.997 1.014 29.04 0.997 29.091 0.983 C 29.14 0.968 29.196 0.962 29.259 0.962 C 29.356 0.962 29.445 0.981 29.528 1.019 C 29.608 1.055 29.68 1.105 29.738 1.169 C 29.797 1.235 29.843 1.31 29.876 1.398 C 29.908 1.485 29.924 1.579 29.924 1.681 C 29.924 1.782 29.908 1.877 29.876 1.967 C 29.844 2.053 29.8 2.131 29.742 2.198 C 29.684 2.262 29.614 2.315 29.53 2.354 C 29.448 2.393 29.355 2.412 29.25 2.412 C 29.152 2.412 29.062 2.39 28.976 2.349 C 28.892 2.307 28.828 2.246 28.778 2.167 L 28.773 2.167 L 28.773 2.372 L 28.449 2.372 L 28.449 0.213 Z M 29.576 1.681 C 29.576 1.626 29.567 1.576 29.55 1.523 C 29.535 1.471 29.512 1.424 29.479 1.382 C 29.446 1.34 29.406 1.305 29.356 1.282 C 29.307 1.255 29.249 1.241 29.182 1.241 C 29.119 1.241 29.064 1.255 29.013 1.282 C 28.964 1.308 28.922 1.342 28.886 1.384 C 28.85 1.426 28.824 1.473 28.806 1.527 C 28.788 1.579 28.78 1.634 28.78 1.687 C 28.78 1.74 28.788 1.793 28.806 1.847 C 28.824 1.898 28.85 1.944 28.886 1.986 C 28.922 2.028 28.964 2.062 29.013 2.089 C 29.064 2.114 29.119 2.126 29.182 2.126 C 29.249 2.126 29.307 2.113 29.356 2.086 C 29.406 2.06 29.446 2.025 29.479 1.983 C 29.512 1.941 29.535 1.894 29.55 1.84 C 29.567 1.787 29.576 1.734 29.576 1.681 Z" class="letter"/>
  <path id="path438" d="M 31.505 2.372 L 31.18 2.372 L 31.18 2.151 L 31.175 2.151 C 31.145 2.22 31.091 2.281 31.016 2.335 C 30.941 2.387 30.853 2.412 30.75 2.412 C 30.659 2.412 30.582 2.396 30.518 2.366 C 30.455 2.334 30.403 2.292 30.361 2.241 C 30.321 2.189 30.291 2.13 30.272 2.062 C 30.254 1.997 30.244 1.928 30.244 1.857 L 30.244 1 L 30.586 1 L 30.586 1.761 C 30.586 1.8 30.59 1.842 30.595 1.886 C 30.6 1.93 30.612 1.969 30.633 2.005 C 30.651 2.04 30.677 2.069 30.709 2.092 C 30.743 2.115 30.787 2.126 30.843 2.126 C 30.897 2.126 30.943 2.115 30.983 2.095 C 31.024 2.072 31.059 2.044 31.082 2.009 C 31.11 1.975 31.13 1.936 31.143 1.892 C 31.155 1.847 31.163 1.8 31.163 1.755 L 31.163 1 L 31.505 1 Z" class="letter"/>
  <path id="path440" d="M 31.923 1 L 32.266 1 L 32.266 2.372 L 31.923 2.372 Z M 31.875 0.536 C 31.875 0.48 31.893 0.432 31.934 0.393 C 31.976 0.351 32.028 0.33 32.091 0.33 C 32.154 0.33 32.207 0.35 32.248 0.39 C 32.291 0.427 32.313 0.476 32.313 0.536 C 32.313 0.595 32.291 0.645 32.248 0.684 C 32.207 0.721 32.154 0.741 32.091 0.741 C 32.028 0.741 31.976 0.721 31.934 0.682 C 31.893 0.64 31.875 0.59 31.875 0.536 Z" class="letter"/>
  <path id="path442" d="M 32.687 0.213 L 33.029 0.213 L 33.029 2.372 L 32.687 2.372 Z" class="letter"/>
  <path id="path444" d="M 34.838 2.372 L 34.513 2.372 L 34.513 2.167 L 34.508 2.167 C 34.459 2.246 34.394 2.307 34.307 2.349 C 34.223 2.39 34.133 2.412 34.036 2.412 C 33.932 2.412 33.838 2.393 33.754 2.354 C 33.671 2.315 33.601 2.262 33.542 2.198 C 33.485 2.131 33.441 2.053 33.408 1.967 C 33.378 1.877 33.363 1.782 33.363 1.681 C 33.363 1.579 33.379 1.485 33.411 1.398 C 33.444 1.31 33.49 1.235 33.548 1.169 C 33.607 1.105 33.677 1.055 33.759 1.019 C 33.842 0.981 33.931 0.962 34.028 0.962 C 34.091 0.962 34.147 0.968 34.196 0.983 C 34.247 0.997 34.289 1.014 34.325 1.036 C 34.363 1.056 34.395 1.079 34.422 1.104 C 34.449 1.129 34.47 1.152 34.488 1.174 L 34.496 1.174 L 34.496 0.213 L 34.838 0.213 Z M 33.711 1.681 C 33.711 1.734 33.718 1.787 33.733 1.84 C 33.75 1.894 33.775 1.941 33.808 1.983 C 33.84 2.025 33.881 2.06 33.931 2.086 C 33.979 2.113 34.037 2.126 34.105 2.126 C 34.167 2.126 34.223 2.114 34.273 2.089 C 34.322 2.062 34.364 2.028 34.399 1.986 C 34.436 1.944 34.46 1.898 34.479 1.847 C 34.497 1.793 34.506 1.74 34.506 1.687 C 34.506 1.634 34.497 1.579 34.479 1.527 C 34.462 1.473 34.436 1.426 34.399 1.384 C 34.364 1.342 34.322 1.308 34.273 1.282 C 34.223 1.255 34.167 1.241 34.105 1.241 C 34.037 1.241 33.979 1.255 33.931 1.282 C 33.881 1.305 33.84 1.34 33.808 1.382 C 33.775 1.424 33.75 1.471 33.733 1.523 C 33.718 1.576 33.711 1.626 33.711 1.681 Z" class="letter" style=""/>
  <path id="path445" d="M 37.1 1.405 C 37.07 1.365 37.028 1.331 36.975 1.303 C 36.921 1.271 36.863 1.256 36.799 1.256 C 36.746 1.256 36.694 1.267 36.649 1.291 C 36.603 1.313 36.579 1.351 36.579 1.405 C 36.579 1.457 36.605 1.497 36.654 1.52 C 36.707 1.54 36.781 1.561 36.878 1.584 C 36.929 1.597 36.981 1.612 37.031 1.63 C 37.084 1.649 37.133 1.675 37.175 1.707 C 37.218 1.739 37.252 1.777 37.28 1.824 C 37.307 1.871 37.32 1.928 37.32 1.993 C 37.32 2.077 37.304 2.149 37.272 2.208 C 37.241 2.265 37.199 2.312 37.146 2.348 C 37.093 2.383 37.033 2.409 36.963 2.425 C 36.894 2.441 36.823 2.45 36.749 2.45 C 36.641 2.45 36.538 2.431 36.439 2.392 C 36.337 2.354 36.253 2.297 36.186 2.225 L 36.413 2.013 C 36.45 2.063 36.499 2.104 36.561 2.136 C 36.621 2.168 36.689 2.185 36.763 2.185 C 36.787 2.185 36.813 2.182 36.837 2.177 C 36.865 2.171 36.887 2.163 36.909 2.151 C 36.931 2.138 36.95 2.12 36.963 2.099 C 36.976 2.078 36.983 2.052 36.983 2.023 C 36.983 1.965 36.956 1.924 36.902 1.9 C 36.851 1.875 36.772 1.85 36.668 1.826 C 36.618 1.814 36.566 1.8 36.518 1.783 C 36.469 1.764 36.428 1.74 36.388 1.712 C 36.35 1.681 36.32 1.644 36.298 1.599 C 36.275 1.556 36.262 1.502 36.262 1.437 C 36.262 1.361 36.279 1.296 36.309 1.24 C 36.341 1.186 36.383 1.14 36.434 1.105 C 36.486 1.069 36.544 1.044 36.608 1.026 C 36.673 1.008 36.74 1 36.809 1 C 36.908 1 37.003 1.018 37.097 1.051 C 37.192 1.086 37.267 1.138 37.323 1.208 Z" class="letter" style=""/>
  <path id="path448" d="M 37.531 1.681 C 37.531 1.572 37.55 1.474 37.588 1.387 C 37.628 1.298 37.68 1.221 37.748 1.158 C 37.815 1.095 37.894 1.047 37.984 1.013 C 38.077 0.978 38.173 0.961 38.276 0.961 C 38.379 0.961 38.477 0.978 38.567 1.013 C 38.659 1.047 38.738 1.095 38.805 1.158 C 38.871 1.221 38.924 1.298 38.961 1.387 C 39.001 1.474 39.021 1.572 39.021 1.681 C 39.021 1.789 39.001 1.888 38.961 1.978 C 38.924 2.067 38.871 2.144 38.805 2.208 C 38.738 2.272 38.659 2.321 38.567 2.358 C 38.477 2.393 38.379 2.412 38.276 2.412 C 38.173 2.412 38.077 2.393 37.984 2.358 C 37.894 2.321 37.815 2.272 37.748 2.208 C 37.68 2.144 37.628 2.067 37.588 1.978 C 37.55 1.888 37.531 1.789 37.531 1.681 Z M 37.879 1.681 C 37.879 1.734 37.888 1.787 37.902 1.84 C 37.92 1.894 37.943 1.941 37.977 1.983 C 38.009 2.025 38.049 2.06 38.099 2.086 C 38.149 2.113 38.207 2.126 38.276 2.126 C 38.345 2.126 38.404 2.113 38.453 2.086 C 38.503 2.06 38.545 2.025 38.577 1.983 C 38.609 1.941 38.632 1.894 38.647 1.84 C 38.664 1.787 38.674 1.734 38.674 1.681 C 38.674 1.626 38.664 1.576 38.647 1.523 C 38.632 1.471 38.609 1.424 38.577 1.382 C 38.545 1.34 38.503 1.305 38.453 1.282 C 38.404 1.255 38.345 1.241 38.276 1.241 C 38.209 1.241 38.149 1.255 38.099 1.282 C 38.049 1.305 38.009 1.34 37.977 1.382 C 37.943 1.424 37.92 1.471 37.902 1.523 C 37.888 1.576 37.879 1.626 37.879 1.681 Z" class="letter" style=""/>
  <path id="path450" d="M 39.405 1.274 L 39.146 1.274 L 39.146 1 L 39.405 1 L 39.405 0.799 C 39.405 0.716 39.414 0.638 39.431 0.563 C 39.451 0.488 39.48 0.421 39.522 0.364 C 39.567 0.308 39.624 0.263 39.694 0.231 C 39.763 0.195 39.853 0.178 39.959 0.178 C 39.997 0.178 40.029 0.181 40.053 0.183 C 40.081 0.187 40.106 0.19 40.134 0.198 L 40.11 0.489 C 40.092 0.484 40.072 0.479 40.048 0.474 C 40.026 0.472 40.004 0.469 39.979 0.469 C 39.93 0.469 39.89 0.479 39.86 0.499 C 39.829 0.518 39.805 0.542 39.788 0.573 C 39.773 0.603 39.762 0.636 39.757 0.673 C 39.752 0.708 39.748 0.745 39.748 0.778 L 39.748 1 L 40.066 1 L 40.066 1.274 L 39.748 1.274 L 39.748 2.372 L 39.406 2.372 Z" class="letter"/>
  <path id="path452" d="M 40.035 1.274 L 40.035 1 L 40.274 1 L 40.274 0.604 L 40.613 0.604 L 40.613 1 L 40.955 1 L 40.955 1.274 L 40.613 1.274 L 40.613 1.911 C 40.613 1.972 40.623 2.024 40.643 2.062 C 40.666 2.103 40.716 2.124 40.792 2.124 C 40.815 2.124 40.839 2.121 40.866 2.118 C 40.893 2.113 40.915 2.104 40.937 2.095 L 40.948 2.363 C 40.918 2.376 40.882 2.383 40.84 2.389 C 40.798 2.396 40.758 2.4 40.72 2.4 C 40.629 2.4 40.555 2.388 40.498 2.363 C 40.44 2.336 40.394 2.302 40.36 2.257 C 40.327 2.211 40.305 2.16 40.292 2.103 C 40.281 2.044 40.274 1.982 40.274 1.914 L 40.274 1.274 Z" class="letter"/>
  <path id="path454" d="M 41.009 1 L 41.379 1 L 41.665 1.983 L 41.67 1.983 L 41.963 1 L 42.33 1 L 42.628 1.983 L 42.633 1.983 L 42.923 1 L 43.281 1 L 42.807 2.372 L 42.457 2.372 L 42.147 1.413 L 42.142 1.413 L 41.834 2.372 L 41.485 2.372 Z" class="letter"/>
  <path id="path456" d="M 44.351 2.198 L 44.344 2.198 C 44.308 2.258 44.254 2.309 44.177 2.349 C 44.101 2.387 44.014 2.405 43.918 2.405 C 43.862 2.405 43.804 2.398 43.744 2.383 C 43.684 2.371 43.629 2.347 43.577 2.315 C 43.529 2.279 43.487 2.236 43.452 2.183 C 43.419 2.127 43.403 2.06 43.403 1.981 C 43.403 1.878 43.431 1.795 43.489 1.735 C 43.548 1.674 43.623 1.626 43.715 1.594 C 43.807 1.562 43.907 1.542 44.017 1.532 C 44.13 1.52 44.24 1.515 44.346 1.515 L 44.346 1.481 C 44.346 1.395 44.314 1.332 44.252 1.293 C 44.191 1.251 44.117 1.229 44.032 1.229 C 43.959 1.229 43.891 1.245 43.823 1.274 C 43.757 1.305 43.702 1.342 43.659 1.387 L 43.481 1.178 C 43.559 1.106 43.649 1.051 43.749 1.015 C 43.852 0.979 43.955 0.961 44.06 0.961 C 44.182 0.961 44.282 0.978 44.36 1.011 C 44.44 1.047 44.503 1.092 44.549 1.146 C 44.594 1.202 44.625 1.264 44.643 1.332 C 44.662 1.4 44.671 1.469 44.671 1.537 L 44.671 2.372 L 44.351 2.372 Z M 44.346 1.747 L 44.268 1.747 C 44.213 1.747 44.155 1.75 44.094 1.755 C 44.034 1.757 43.978 1.768 43.925 1.786 C 43.875 1.8 43.833 1.824 43.797 1.855 C 43.764 1.883 43.746 1.923 43.746 1.975 C 43.746 2.008 43.752 2.034 43.766 2.057 C 43.781 2.077 43.799 2.095 43.823 2.109 C 43.846 2.121 43.871 2.131 43.899 2.136 C 43.929 2.142 43.957 2.145 43.986 2.145 C 44.103 2.145 44.194 2.114 44.255 2.051 C 44.315 1.988 44.346 1.902 44.346 1.794 Z" class="letter"/>
  <path id="path458" d="M 45.073 1 L 45.401 1 L 45.401 1.229 L 45.407 1.229 C 45.444 1.15 45.498 1.084 45.567 1.035 C 45.634 0.987 45.716 0.961 45.806 0.961 C 45.819 0.961 45.834 0.962 45.849 0.963 C 45.864 0.963 45.877 0.966 45.89 0.968 L 45.89 1.283 C 45.866 1.277 45.846 1.274 45.829 1.272 C 45.814 1.271 45.799 1.269 45.783 1.269 C 45.706 1.269 45.643 1.284 45.596 1.313 C 45.546 1.341 45.511 1.376 45.483 1.415 C 45.456 1.456 45.439 1.497 45.429 1.537 C 45.42 1.579 45.414 1.614 45.414 1.637 L 45.414 2.372 L 45.072 2.372 Z" class="letter"/>
  <path id="path460" d="M 47.026 1.549 C 47.026 1.505 47.018 1.463 47.006 1.424 C 46.995 1.384 46.974 1.349 46.949 1.318 C 46.922 1.287 46.887 1.264 46.846 1.246 C 46.806 1.227 46.759 1.218 46.703 1.218 C 46.601 1.218 46.513 1.25 46.44 1.313 C 46.37 1.373 46.33 1.452 46.323 1.55 Z M 47.368 1.704 C 47.368 1.719 47.368 1.734 47.368 1.75 C 47.368 1.765 47.366 1.779 47.365 1.795 L 46.323 1.795 C 46.327 1.844 46.339 1.889 46.36 1.931 C 46.383 1.972 46.413 2.008 46.448 2.037 C 46.485 2.067 46.525 2.089 46.571 2.105 C 46.617 2.124 46.665 2.131 46.714 2.131 C 46.8 2.131 46.871 2.116 46.931 2.086 C 46.991 2.053 47.039 2.01 47.076 1.955 L 47.305 2.136 C 47.17 2.32 46.974 2.412 46.717 2.412 C 46.61 2.412 46.513 2.396 46.423 2.363 C 46.333 2.329 46.255 2.281 46.19 2.22 C 46.124 2.16 46.073 2.086 46.034 1.998 C 45.998 1.908 45.98 1.808 45.98 1.694 C 45.98 1.585 45.998 1.484 46.034 1.395 C 46.073 1.303 46.124 1.226 46.19 1.164 C 46.254 1.099 46.329 1.05 46.417 1.015 C 46.506 0.979 46.603 0.961 46.706 0.961 C 46.8 0.961 46.887 0.977 46.969 1.009 C 47.05 1.04 47.119 1.087 47.18 1.15 C 47.239 1.21 47.285 1.287 47.317 1.382 C 47.35 1.472 47.368 1.579 47.368 1.704 Z" class="letter"/>
  <path id="path462" d="M 47.637 2.172 C 47.637 2.111 47.659 2.058 47.702 2.015 C 47.749 1.971 47.802 1.95 47.866 1.95 C 47.927 1.95 47.979 1.969 48.025 2.011 C 48.071 2.053 48.094 2.105 48.094 2.167 C 48.094 2.227 48.071 2.279 48.025 2.323 C 47.982 2.367 47.928 2.389 47.866 2.389 C 47.834 2.389 47.805 2.383 47.777 2.372 C 47.75 2.361 47.727 2.345 47.706 2.325 C 47.685 2.307 47.668 2.284 47.654 2.257 C 47.643 2.231 47.637 2.203 47.637 2.172 Z" class="letter"/>
  <path id="path464" d="M 23.973 3.919 L 24.285 3.919 L 25.156 5.941 L 24.745 5.941 L 24.556 5.478 L 23.679 5.478 L 23.498 5.941 L 23.094 5.941 Z M 24.431 5.17 L 24.119 4.348 L 23.803 5.17 Z" class="letter"/>
  <path id="path466" d="M 25.336 4.571 L 25.661 4.571 L 25.661 4.791 L 25.667 4.791 C 25.698 4.722 25.75 4.662 25.824 4.611 C 25.9 4.557 25.99 4.53 26.093 4.53 C 26.182 4.53 26.257 4.546 26.321 4.578 C 26.386 4.609 26.439 4.65 26.477 4.702 C 26.52 4.752 26.55 4.812 26.569 4.878 C 26.588 4.945 26.598 5.014 26.598 5.085 L 26.598 5.941 L 26.255 5.941 L 26.255 5.181 C 26.255 5.141 26.252 5.099 26.246 5.056 C 26.241 5.012 26.229 4.972 26.21 4.939 C 26.192 4.902 26.165 4.872 26.13 4.85 C 26.098 4.827 26.054 4.815 25.998 4.815 C 25.944 4.815 25.896 4.827 25.856 4.85 C 25.816 4.871 25.783 4.898 25.756 4.933 C 25.731 4.967 25.713 5.008 25.699 5.054 C 25.686 5.097 25.678 5.141 25.678 5.187 L 25.678 5.941 L 25.336 5.941 Z" class="letter"/>
  <path id="path468" d="M 28.392 5.941 L 28.066 5.941 L 28.066 5.736 L 28.061 5.736 C 28.013 5.815 27.946 5.876 27.86 5.918 C 27.776 5.96 27.686 5.981 27.589 5.981 C 27.485 5.981 27.391 5.961 27.307 5.923 C 27.225 5.885 27.155 5.832 27.095 5.767 C 27.039 5.699 26.994 5.623 26.962 5.535 C 26.93 5.446 26.915 5.351 26.915 5.25 C 26.915 5.149 26.931 5.055 26.965 4.967 C 26.997 4.88 27.042 4.804 27.101 4.739 C 27.16 4.675 27.23 4.623 27.313 4.588 C 27.394 4.549 27.483 4.53 27.581 4.53 C 27.644 4.53 27.699 4.538 27.75 4.552 C 27.799 4.566 27.841 4.583 27.877 4.604 C 27.915 4.625 27.948 4.649 27.975 4.673 C 28.002 4.698 28.023 4.722 28.041 4.744 L 28.049 4.744 L 28.049 3.782 L 28.392 3.782 Z M 27.264 5.25 C 27.264 5.303 27.271 5.357 27.287 5.409 C 27.303 5.464 27.329 5.511 27.361 5.552 C 27.393 5.594 27.434 5.629 27.483 5.655 C 27.533 5.682 27.591 5.696 27.657 5.696 C 27.72 5.696 27.776 5.683 27.826 5.657 C 27.875 5.632 27.917 5.597 27.951 5.555 C 27.988 5.513 28.014 5.467 28.031 5.414 C 28.05 5.362 28.06 5.308 28.06 5.256 C 28.06 5.202 28.05 5.149 28.031 5.096 C 28.014 5.043 27.988 4.996 27.951 4.954 C 27.917 4.91 27.875 4.877 27.826 4.85 C 27.776 4.824 27.72 4.81 27.657 4.81 C 27.591 4.81 27.533 4.824 27.483 4.85 C 27.434 4.875 27.393 4.908 27.361 4.95 C 27.329 4.993 27.303 5.04 27.287 5.092 C 27.271 5.144 27.264 5.197 27.264 5.25 Z" class="letter"/>
  <path id="path470" d="M 29.328 4.844 L 29.328 4.571 L 29.566 4.571 L 29.566 4.173 L 29.903 4.173 L 29.903 4.571 L 30.246 4.571 L 30.246 4.844 L 29.903 4.844 L 29.903 5.481 C 29.903 5.541 29.914 5.593 29.936 5.632 C 29.958 5.672 30.008 5.693 30.085 5.693 C 30.107 5.693 30.132 5.69 30.159 5.687 C 30.185 5.682 30.208 5.674 30.23 5.665 L 30.241 5.933 C 30.209 5.944 30.174 5.953 30.132 5.959 C 30.09 5.965 30.05 5.97 30.012 5.97 C 29.92 5.97 29.846 5.957 29.79 5.932 C 29.733 5.906 29.687 5.871 29.653 5.827 C 29.62 5.781 29.597 5.729 29.585 5.672 C 29.572 5.613 29.566 5.55 29.566 5.483 L 29.566 4.844 Z" class="letter"/>
  <path id="path472" d="M 30.495 4.571 L 30.823 4.571 L 30.823 4.798 L 30.828 4.798 C 30.867 4.719 30.919 4.654 30.988 4.604 C 31.058 4.556 31.137 4.53 31.228 4.53 C 31.242 4.53 31.255 4.531 31.271 4.533 C 31.286 4.533 31.3 4.535 31.311 4.538 L 31.311 4.852 C 31.287 4.847 31.268 4.843 31.251 4.841 C 31.237 4.84 31.221 4.839 31.206 4.839 C 31.128 4.839 31.064 4.854 31.017 4.882 C 30.97 4.91 30.932 4.944 30.906 4.985 C 30.879 5.025 30.86 5.066 30.85 5.107 C 30.841 5.149 30.838 5.183 30.838 5.207 L 30.838 5.941 L 30.495 5.941 Z" class="letter"/>
  <path id="path474" d="M 32.782 5.941 L 32.458 5.941 L 32.458 5.722 L 32.452 5.722 C 32.421 5.79 32.369 5.85 32.291 5.903 C 32.217 5.956 32.129 5.981 32.026 5.981 C 31.937 5.981 31.86 5.965 31.795 5.935 C 31.732 5.903 31.68 5.861 31.639 5.81 C 31.598 5.757 31.569 5.699 31.549 5.632 C 31.531 5.566 31.522 5.497 31.522 5.427 L 31.522 4.571 L 31.864 4.571 L 31.864 5.33 C 31.864 5.37 31.866 5.412 31.872 5.455 C 31.877 5.499 31.89 5.539 31.908 5.576 C 31.927 5.609 31.953 5.639 31.985 5.661 C 32.021 5.683 32.065 5.696 32.121 5.696 C 32.174 5.696 32.221 5.685 32.26 5.665 C 32.302 5.641 32.334 5.613 32.36 5.578 C 32.387 5.544 32.406 5.506 32.419 5.461 C 32.433 5.414 32.44 5.37 32.44 5.324 L 32.44 4.571 L 32.782 4.571 Z" class="letter"/>
  <path id="path476" d="M 33.945 4.936 C 33.915 4.896 33.873 4.862 33.82 4.834 C 33.766 4.802 33.708 4.787 33.644 4.787 C 33.591 4.787 33.539 4.798 33.494 4.822 C 33.448 4.844 33.424 4.882 33.424 4.936 C 33.424 4.988 33.45 5.028 33.499 5.051 C 33.552 5.071 33.626 5.092 33.723 5.115 C 33.774 5.128 33.826 5.143 33.876 5.161 C 33.929 5.18 33.978 5.206 34.02 5.238 C 34.063 5.27 34.097 5.308 34.125 5.355 C 34.152 5.402 34.165 5.459 34.165 5.524 C 34.165 5.608 34.149 5.68 34.117 5.739 C 34.086 5.796 34.044 5.843 33.991 5.879 C 33.938 5.914 33.878 5.94 33.808 5.956 C 33.739 5.972 33.668 5.981 33.594 5.981 C 33.486 5.981 33.383 5.962 33.284 5.923 C 33.182 5.885 33.098 5.828 33.031 5.756 L 33.258 5.544 C 33.295 5.594 33.344 5.635 33.406 5.667 C 33.466 5.699 33.534 5.716 33.608 5.716 C 33.632 5.716 33.658 5.713 33.682 5.708 C 33.71 5.702 33.732 5.694 33.754 5.682 C 33.776 5.669 33.795 5.651 33.808 5.63 C 33.821 5.609 33.828 5.583 33.828 5.554 C 33.828 5.496 33.801 5.455 33.747 5.431 C 33.696 5.406 33.617 5.381 33.513 5.357 C 33.463 5.345 33.411 5.331 33.363 5.314 C 33.314 5.295 33.273 5.271 33.233 5.243 C 33.195 5.212 33.165 5.175 33.143 5.13 C 33.12 5.087 33.107 5.033 33.107 4.968 C 33.107 4.892 33.124 4.827 33.154 4.771 C 33.186 4.717 33.228 4.671 33.279 4.636 C 33.331 4.6 33.389 4.575 33.453 4.557 C 33.518 4.539 33.585 4.531 33.654 4.531 C 33.753 4.531 33.848 4.549 33.942 4.582 C 34.037 4.617 34.112 4.669 34.168 4.739 Z" class="letter"/>
  <path id="path478" d="M 34.263 4.844 L 34.263 4.571 L 34.502 4.571 L 34.502 4.173 L 34.839 4.173 L 34.839 4.571 L 35.183 4.571 L 35.183 4.844 L 34.839 4.844 L 34.839 5.481 C 34.839 5.541 34.851 5.593 34.87 5.632 C 34.894 5.672 34.943 5.693 35.02 5.693 C 35.042 5.693 35.068 5.69 35.094 5.687 C 35.121 5.682 35.144 5.674 35.165 5.665 L 35.175 5.933 C 35.146 5.944 35.11 5.953 35.068 5.959 C 35.026 5.965 34.985 5.97 34.948 5.97 C 34.857 5.97 34.781 5.957 34.726 5.932 C 34.668 5.906 34.622 5.871 34.588 5.827 C 34.555 5.781 34.532 5.729 34.518 5.672 C 34.508 5.613 34.502 5.55 34.502 5.483 L 34.502 4.844 Z" class="letter"/>
  <path id="path480" d="M 35.368 5.741 C 35.368 5.681 35.389 5.628 35.433 5.583 C 35.479 5.54 35.533 5.519 35.596 5.519 C 35.658 5.519 35.71 5.539 35.756 5.581 C 35.801 5.623 35.825 5.674 35.825 5.736 C 35.825 5.797 35.801 5.848 35.756 5.892 C 35.712 5.935 35.659 5.959 35.596 5.959 C 35.565 5.959 35.536 5.951 35.507 5.941 C 35.48 5.93 35.458 5.914 35.436 5.896 C 35.416 5.876 35.399 5.854 35.385 5.827 C 35.373 5.801 35.368 5.771 35.368 5.741 Z" class="letter"/>
</svg>